<?xml version="1.0" encoding="UTF-8" standalone="no"?>
<svg
   xmlns:dc="http://purl.org/dc/elements/1.1/"
   xmlns:cc="http://creativecommons.org/ns#"
   xmlns:rdf="http://www.w3.org/1999/02/22-rdf-syntax-ns#"
   xmlns:svg="http://www.w3.org/2000/svg"
   xmlns="http://www.w3.org/2000/svg"
   xmlns:sodipodi="http://sodipodi.sourceforge.net/DTD/sodipodi-0.dtd"
   xmlns:inkscape="http://www.inkscape.org/namespaces/inkscape"
   version="1.1"
   preserveAspectRatio="xMidYMid meet"
   zoomAndPan="magnify"
   id="Food Logo"
   viewBox="-160 -160 320 280"
   width="800"
   height="700"
   inkscape:version="0.91 r13725"
   sodipodi:docname="canteenie.svg"
   inkscape:export-filename="/home/dreieinhalb/canteenie.png"
   inkscape:export-xdpi="28.157143"
   inkscape:export-ydpi="28.157143">
  <metadata
     id="metadata22">
    <rdf:RDF>
      <cc:Work
         rdf:about="">
        <dc:format>image/svg+xml</dc:format>
        <dc:type
           rdf:resource="http://purl.org/dc/dcmitype/StillImage" />
        <dc:title></dc:title>
      </cc:Work>
    </rdf:RDF>
  </metadata>
  <sodipodi:namedview
     pagecolor="#ffffff"
     bordercolor="#666666"
     borderopacity="1"
     objecttolerance="10"
     gridtolerance="10"
     guidetolerance="10"
     inkscape:pageopacity="0"
     inkscape:pageshadow="2"
     inkscape:window-width="640"
     inkscape:window-height="480"
     id="namedview20"
     showgrid="false"
     inkscape:zoom="1.0020713"
     inkscape:cx="226.77672"
     inkscape:cy="379.54546"
     inkscape:current-layer="g12" />
  <defs
     id="defs3">
    <linearGradient
       id="gradient">
      <stop
         offset="0"
         stop-color="white"
         id="stop6" />
      <stop
         offset="1"
         stop-color="#BBB"
         id="stop8" />
    </linearGradient>
  </defs>
  <circle
     r="100"
     fill="white"
     stroke="#444"
     stroke-width="3"
     id="circle10"
     style="fill:none" />
  <g
     fill="white"
     stroke="black"
     stroke-width="5"
     id="g12">
    <path
       d="M -150,90 a 12.5,12.5,0 0,0 25,0 v -140 a 25,25,0 0,0 25,-25 v -120 a 7.5,7.5,0 0,0 -15,0 v 120 a 7.5,7.5,0 0,1 -15,0 v -120 a 7.5,7.5,0 0,0 -15,0 v 120 a 7.5,7.5,0 0,1 -15,0 v-120 a 7.5,7.5,0 0,0 -15,0 v 120 a 25,25,0 0,0 25,25 z"
       transform="scale(.5,.8) translate(-120,20)"
       id="path14"
       style="fill:#00abc8;fill-opacity:1;stroke:#444444;stroke-opacity:1" />
    <path
       d="M 125,90 a 12.5,12.5,0 0,0 25,0 v -280 C 150,-215 70,-225 90,-20 H 125 z"
       transform="scale(.5,.8) translate(135,20)"
       id="path16"
       style="fill:#00abc8;fill-opacity:1;stroke:#444444;stroke-opacity:1" />
  </g>
  <circle
     r="65"
     fill="none"
     stroke="url(#gradient)"
     stroke-width="4"
     id="circle18" />
</svg>
